<?xml version="1.0" encoding="UTF-8"?>
<svg xmlns="http://www.w3.org/2000/svg" id="Capa_2" data-name="Capa 2" viewBox="0 0 559.29 543.97">
  <defs>
    <style>
      .cls-1 {
        fill: #321e4c;
        stroke-width: 0px;
      }
    </style>
  </defs>
  <g id="Capa_1-2" data-name="Capa 1">
    <path class="cls-1" d="M338.29,238.1c-11.79,0-21.22,11.79-21.22,21.22,0,14.14,10.61,26.52,24.75,26.52,10.61,0,21.81-10.61,21.81-22.4,0-12.38-12.38-25.34-25.34-25.34ZM281.71,341.23c0-14.73-8.84-24.75-24.16-24.75-11.79,0-24.75,9.43-24.75,20.63,0,14.14,7.07,27.11,24.16,27.11,13.56,0,24.75-10.61,24.75-22.98ZM319.43,365.99c-21.22,0-60.11,68.36-90.17,68.36-22.98,0-31.82-27.7-31.82-53.04,0-38.31,6.48-88.99,6.48-116.1,0-11.79-1.18-20.04-6.48-20.04-15.32,0-33,74.85-40.08,124.94-22.4-57.17-22.4-163.25-36.54-163.25-11.79,0-17.68,74.85-17.68,166.2-14.73-22.98-35.95-164.43-50.09-164.43-3.54,0-5.3,10.02-5.3,29.47,0,40.08,7.07,110.8,11.2,147.34C34.18,322.37,11.2,252.24,4.71,252.24c-2.95,0-4.71,6.48-4.71,21.81,0,80.74,49.51,269.92,136.14,269.92,76.62,0,190.95-111.39,190.95-168.55,0-6.48-2.36-9.43-7.66-9.43ZM291.73,0c-10.02,0-13.56,2.36-13.56,5.3,0,8.25,63.06,27.7,114.92,64.24-55.99-14.73-99.01-22.98-139.68-22.98-24.16,0-28.88,1.18-28.88,4.71,0,12.97,134.96,44.79,160.3,58.35-21.81-2.36-51.27-4.13-78.38-4.13-43.61,0-81.92,3.54-81.92,12.38,0,16.5,96.65,16.5,160.3,45.97-79.56,0-130.84,30.06-130.84,37.13,0,21.81,189.77-4.13,189.77,38.31,0,26.52-75.44,68.36-75.44,88.99,0,3.54,3.54,4.71,7.66,4.71,86.05,0,183.29-112.57,183.29-179.16C559.29,69.54,381.9,0,291.73,0Z"></path>
  </g>
</svg>
